<?xml version="1.0" encoding="UTF-8" standalone="no"?>


<svg version="1.1" id="svg1" width="700" height="466.66669" viewBox="0 0 700 466.66668" xmlns:sodipodi-0.dtd="http://sodipodi.sourceforge.net/DTD/sodipodi-0.dtd" xmlns:sodipodi-0.dtd="http://sodipodi.sourceforge.net/DTD/sodipodi-0.dtd" sodipodi-0.dtd:docname="no-actionable-doc.svg" xmlns:inkscape="http://www.inkscape.org/namespaces/inkscape" xmlns:inkscape="http://www.inkscape.org/namespaces/inkscape" inkscape:version="1.3.2 (091e20e, 2023-11-25)" xmlns:sodipodi="http://sodipodi.sourceforge.net/DTD/sodipodi-0.dtd" xmlns="http://www.w3.org/2000/svg" xmlns:svg="http://www.w3.org/2000/svg">
  <defs id="defs1"></defs>
  <namedview id="namedview1" pagecolor="#ffffff" bordercolor="#999999" borderopacity="1" inkscape:showpageshadow="2" inkscape:pageopacity="0" inkscape:pagecheckerboard="0" inkscape:deskcolor="#d1d1d1" inkscape:zoom="0.71410918" inkscape:cx="316.47822" inkscape:cy="305.27545" inkscape:window-width="1920" inkscape:window-height="1027" inkscape:window-x="1680" inkscape:window-y="25" inkscape:window-maximized="1" inkscape:current-layer="g1">
    <page x="0" y="0" inkscape:label="1" id="page1" width="700" height="466.66669" margin="0" bleed="0"></page>
  </namedview>
  <g id="g1" inkscape:groupmode="layer" inkscape:label="1" transform="matrix(0.17225338,0,0,0.17226194,5.6470223,2.7552045)">
    <g id="group-R5"></g>
    <path id="path3" d="m 502.80098,2506.7014 c 0,0 -421.148013,-461.9814 -245.28818,-1005.0234 157.83655,-487.3846 871.4815,-802.81872 1250.6836,-561.42419 183.4491,116.77189 331.6516,-352.58155 940.4766,-524.38846 450.2235,-127.06403 1115.9598,157.89258 946.876,1030.50635 -128.5544,663.452 509.1179,332.6834 369.8646,1065.5954 l -3262.61262,-5.2657" style="fill:#ebf3fa;fill-opacity:1;fill-rule:nonzero;stroke:none;stroke-width:0.163071"></path>
    <path id="path4" d="m 2734.1957,846.15654 c 0,0 -91.508,-94.78342 -11.6823,-159.95101 0,0 58.7277,-37.00383 107.8397,-35.93472 0,0 -65.0604,113.97945 -42.1626,124.25563 22.8978,10.27618 62.9273,-132.01064 62.9273,-132.01064 0,0 136.2536,-17.61631 181.0493,1.05315 0,0 -113.3225,95.82061 -88.4748,100.38425 24.8309,4.56365 147.5692,-89.88467 147.5692,-89.88467 0,0 128.1044,16.16424 124.2214,90.74634 -3.8663,74.5821 -46.8122,99.12367 -66.177,97.84713 -19.3481,-1.29251 -133.7205,-38.43995 -135.587,-23.23311 -1.8665,15.20683 67.9435,62.18366 115.5723,62.79002 0,0 -86.0251,97.97478 -146.736,72.77899 -60.7109,-25.1958 -67.4935,-68.35895 -105.3066,-83.29452 -37.813,-14.91961 -69.5433,-13.73881 -53.5449,2.29778 15.9985,16.03659 83.9087,29.72753 106.5732,64.96015 22.6811,35.24858 42.7126,58.84869 -19.3482,52.17875 -62.044,-6.66995 -164.0343,-46.29069 -170.3837,-95.64509 -6.3493,-49.33843 -6.3493,-49.33843 -6.3493,-49.33843" style="fill:#599dad;fill-opacity:1;fill-rule:nonzero;stroke:none;stroke-width:0.163071"></path>
    <path id="path5" d="m 3153.0222,749.07534 c 0,0 -346.1835,-0.31914 -418.8265,97.0812 0,0 -14.9819,49.0193 -65.1938,94.97489 l -7.2826,21.42999 c 0,0 57.5278,-62.63045 78.8257,-67.06645 0,0 -38.113,-116.06979 412.4772,-146.41963" style="fill:#599dad;fill-opacity:1;fill-rule:nonzero;stroke:none;stroke-width:0.163071"></path>
    <path id="path6" d="m 2669.0019,941.13143 c 0,0 -72.1431,55.2265 -73.6263,149.29187 l 13.5154,0.6702 c 0,0 19.8981,-97.92693 61.2441,-137.43597 41.3461,-39.49309 -1.1332,-12.5261 -1.1332,-12.5261" style="fill:#599dad;fill-opacity:1;fill-rule:nonzero;stroke:none;stroke-width:0.163071"></path>
    <path id="path7" d="m 2527.3488,733.19832 c 0,0 -205.697,-44.42374 -163.1844,-196.17295 0,0 41.4127,-97.52799 105.6732,-137.85083 0,0 21.7146,202.09292 60.7442,195.90168 39.0129,-6.19124 -41.1627,-223.50696 -41.1627,-223.50696 0,0 159.2514,-138.3774 234.2442,-152.35556 0,0 -57.2778,219.64541 -21.048,204.45453 36.2299,-15.20683 106.9231,-241.10731 106.9231,-241.10731 0,0 179.9995,-87.921993 244.0767,11.45698 64.0938,99.39494 31.4636,167.48262 5.3328,182.24266 -26.1142,14.79196 -207.8968,64.00275 -196.1979,85.19338 11.6822,21.17468 145.1361,22.43527 207.0468,-17.21739 0,0 -20.098,199.26857 -121.655,218.35291 -101.5569,19.06838 -150.2856,-30.78068 -212.8296,-17.90353 -62.5273,12.87714 -102.3235,41.32812 -66.8603,48.39698 35.4467,7.08482 135.6371,-32.93484 197.4811,-6.76568 61.8441,26.1532 109.5062,39.55692 23.3811,83.64557 -86.1251,44.08865 -254.2256,79.62445 -308.1038,21.42998 -53.8615,-58.19446 -53.8615,-58.19446 -53.8615,-58.19446" style="fill:#86d1cd;fill-opacity:1;fill-rule:nonzero;stroke:none;stroke-width:0.163071"></path>
    <path id="path8" d="m 2977.0891,252.5315 c 0,0 -446.3573,293.4935 -449.7403,480.66682 0,0 26.0975,75.89056 3.9329,177.74284 l 10.4657,33.78056 c 0,0 16.1318,-129.5533 39.4629,-153.32894 0,0 -156.6017,-117.18677 395.8788,-538.86128" style="fill:#6bb7bf;fill-opacity:1;fill-rule:nonzero;stroke:none;stroke-width:0.163071"></path>
    <path id="path9" d="m 2531.2817,910.94116 c 0,0 -41.8126,132.37764 43.3959,254.83014 l 18.0316,-10.6113 c 0,0 -65.0604,-143.0527 -48.362,-229.04392 16.6817,-86.00717 -13.0655,-15.17492 -13.0655,-15.17492" style="fill:#6bb7bf;fill-opacity:1;fill-rule:nonzero;stroke:none;stroke-width:0.163071"></path>
    <path id="path10" d="m 1384.7082,1863.2911 c 0,0 205.697,-44.4237 163.1844,-196.1729 0,0 -41.4127,-97.5121 -105.6732,-137.8349 0,0 -21.7146,202.0769 -60.7442,195.8857 -39.013,-6.1912 41.1627,-223.5069 41.1627,-223.5069 0,0 -159.2514,-138.3775 -234.2442,-152.3397 0,0 57.2778,219.6455 21.0479,204.4386 -36.2298,-15.1909 -106.9164,-241.1073 -106.9164,-241.1073 0,0 -180.00441,-87.922 -244.08828,11.4729 -64.08386,99.379 -31.45532,167.4667 -5.33115,182.2427 26.1225,14.776 207.89343,64.0028 196.20783,85.1774 -11.6855,21.1747 -145.13772,22.4353 -207.05013,-17.2014 0,0 20.09641,199.2686 121.65502,218.3369 101.55861,19.0684 150.28391,-30.7806 212.82631,-17.9035 62.5273,12.8772 102.3235,41.3441 66.8602,48.413 -35.4466,7.0688 -135.6353,-32.9508 -197.4827,-6.7817 -61.84743,26.1532 -109.50453,39.5569 -23.3794,83.6456 86.1267,44.0886 254.2256,79.6244 308.1038,21.43 53.8615,-58.1945 53.8615,-58.1945 53.8615,-58.1945" style="fill:#86d1cd;fill-opacity:1;fill-rule:nonzero;stroke:none;stroke-width:0.163071"></path>
    <path id="path11" d="m 934.97126,1382.6243 c 0,0 446.35394,293.5095 449.73694,480.6668 0,0 -26.0975,75.8906 -3.933,177.7428 l -10.4823,33.7806 c 0,0 -16.1151,-129.5373 -39.4462,-153.3289 0,0 156.6017,-117.1868 -395.87544,-538.8613" style="fill:#6bb7bf;fill-opacity:1;fill-rule:nonzero;stroke:none;stroke-width:0.163071"></path>
    <path id="path12" d="m 1380.7752,2041.0339 c 0,0 41.8127,132.3937 -43.3958,254.8302 l -18.0316,-10.5953 c 0,0 65.0604,-143.0687 48.362,-229.0599 -16.6817,-86.0072 13.0654,-15.175 13.0654,-15.175" style="fill:#6bb7bf;fill-opacity:1;fill-rule:nonzero;stroke:none;stroke-width:0.163071"></path>
    <path id="path13" d="m 2748.4943,2511.9671 h -1496.99 V 499.112 h 1496.99 v 2012.8551" style="fill:#739af0;fill-opacity:1;fill-rule:nonzero;stroke:none;stroke-width:0.163071"></path>
    <path id="path14" d="M 2695.8827,2474.692 H 1304.1159 V 554.84912 H 2695.8827 V 2474.692" style="fill:#ddebfd;fill-opacity:1;fill-rule:nonzero;stroke:none;stroke-width:0.163071"></path>
    <path id="path15" d="M 2583.6767,852.65095 H 1447.4355 v -62.23153 h 1136.2412 v 62.23153" style="fill:#a8c3f7;fill-opacity:1;fill-rule:nonzero;stroke:none;stroke-width:0.163071"></path>
    <path id="path16" d="M 2583.6767,1198.7221 H 1447.4355 v -28.5467 h 1136.2412 v 28.5467" style="fill:#a8c3f7;fill-opacity:1;fill-rule:nonzero;stroke:none;stroke-width:0.163071"></path>
    <path id="path17" d="M 2583.6767,1265.8684 H 1447.4355 v -28.5308 h 1136.2412 v 28.5308" style="fill:#a8c3f7;fill-opacity:1;fill-rule:nonzero;stroke:none;stroke-width:0.163071"></path>
    <path id="path18" d="M 2583.6767,1333.0305 H 1447.4355 v -28.5467 h 1136.2412 v 28.5467" style="fill:#a8c3f7;fill-opacity:1;fill-rule:nonzero;stroke:none;stroke-width:0.163071"></path>
    <path id="path19" d="M 2583.6767,1400.1927 H 1447.4355 v -28.5467 h 1136.2412 v 28.5467" style="fill:#a8c3f7;fill-opacity:1;fill-rule:nonzero;stroke:none;stroke-width:0.163071"></path>
    <path id="path20" d="M 2583.6767,1467.339 H 1447.4355 v -28.5308 h 1136.2412 v 28.5308" style="fill:#a8c3f7;fill-opacity:1;fill-rule:nonzero;stroke:none;stroke-width:0.163071"></path>
    <path id="path21" d="M 2583.6767,1534.5012 H 1447.4355 v -28.5468 h 1136.2412 v 28.5468" style="fill:#a8c3f7;fill-opacity:1;fill-rule:nonzero;stroke:none;stroke-width:0.163071"></path>
    <path id="path22" d="m 1780.1537,1895.9866 c 0,46.3705 -39.2463,83.9487 -87.675,83.9487 -48.412,0 -87.6749,-37.5782 -87.6749,-83.9487 0,-46.3545 39.2629,-83.9487 87.6749,-83.9487 48.4287,0 87.675,37.5942 87.675,83.9487" style="fill:#a8c3f7;fill-opacity:1;fill-rule:nonzero;stroke:none;stroke-width:0.163071"></path>
    <path id="path23" d="m 2244.2926,1909.7733 z m -97.0741,66.9228 c -0.25,0 -0.4999,-0.032 -0.7499,-0.064 -2.3831,-0.383 -3.983,-2.5531 -3.583,-4.8349 0.8166,-4.6115 20.7647,-113.2136 83.6753,-150.1855 4.4829,-2.6328 7.2993,-1.2606 8.5825,-0.2074 5.5162,4.5158 1.3166,16.0525 -17.6316,59.5348 -7.5326,17.3451 -16.4818,37.8815 -20.1814,50.3757 6.716,-8.4093 16.7317,-22.8023 24.6976,-34.2593 24.881,-35.7592 29.7305,-41.5994 34.58,-41.5994 1.7999,0 3.4164,0.7979 4.433,2.2021 2.633,3.6381 0.6332,9.7017 -6.2328,27.5254 -2.6331,6.8296 -6.666,17.2972 -7.8326,22.914 3.5664,-3.0797 8.8159,-9.6219 11.9822,-13.5633 8.6159,-10.7549 12.9821,-15.877 18.1316,-15.1111 1.0832,0.1596 3.6997,0.8936 4.9662,4.2286 0.5166,1.3723 0.7499,2.936 1.0166,4.5955 0.6832,4.2924 1.4332,9.1752 6.8493,12.0953 10.9156,5.8881 42.396,5.553 130.3042,-29.536 2.2331,-0.8936 4.7996,0.1117 5.7328,2.2499 0.9332,2.1382 -0.1167,4.5955 -2.3498,5.4891 -74.2429,29.6318 -119.3719,39.158 -137.9868,29.1052 -9.0658,-4.8828 -10.4156,-13.0686 -11.1989,-18.0312 -2.4998,2.5212 -5.9661,6.8455 -8.5158,10.0209 -9.5158,11.8559 -15.7652,19.0046 -22.1479,18.4939 -1.9498,-0.1595 -3.5997,-1.1169 -4.6496,-2.6967 -3.033,-4.5955 -0.067,-13.6271 7.466,-33.1582 1.2165,-3.1275 2.5997,-6.7178 3.7996,-10.0528 -6.0827,7.9625 -14.3486,19.8503 -21.048,29.4882 -27.864,40.0516 -32.9135,45.8598 -38.5296,44.3918 -0.8666,-0.2234 -3.683,-1.2606 -3.9163,-5.154 -0.5666,-9.3667 8.5658,-31.1158 22.5478,-63.2368 7.0994,-16.3239 16.4151,-37.706 18.7149,-47.1045 -57.2278,36.8123 -76.426,141.5209 -76.6093,142.59 -0.3667,2.0424 -2.2165,3.4945 -4.3163,3.4945" style="fill:#a8c3f7;fill-opacity:1;fill-rule:nonzero;stroke:none;stroke-width:0.163071"></path>
    <path id="path24" d="m 2062.5433,467.88453 c -19.3815,0 -35.08,-15.0313 -35.08,-33.57311 0,-18.54181 15.6985,-33.58907 35.08,-33.58907 19.3648,0 35.0633,15.04726 35.0633,33.58907 0,18.54181 -15.6985,33.57311 -35.0633,33.57311 z m 265.3413,-1.38824 h -176.5165 c 3.9663,-10.02087 6.1494,-20.85554 6.1494,-32.18487 0,-50.23202 -42.5292,-90.93783 -94.9742,-90.93783 -52.4616,0 -94.9909,40.70581 -94.9909,90.93783 0,11.32933 2.1831,22.164 6.1494,32.18487 h -176.5164 c -14.1987,0 -25.7142,11.0102 -25.7142,24.62135 v 68.26321 c 0,13.61115 11.5155,24.63731 25.7142,24.63731 h 530.6992 c 14.2153,0 25.7308,-11.02616 25.7308,-24.63731 v -68.26321 c 0,-13.61115 -11.5155,-24.62135 -25.7308,-24.62135" style="fill:#f99746;fill-opacity:1;fill-rule:nonzero;stroke:none;stroke-width:0.163071"></path>
    <path id="path25" d="m 1797.1854,584.01816 h 530.6992 c 14.2153,0 25.7308,-11.02616 25.7308,-24.63731 v -68.26321 l -556.43,92.90052" style="fill:#ed7d2b;fill-opacity:1;fill-rule:nonzero;stroke:none;stroke-width:0.163071"></path>
    <path id="path26" d="m 379.39779,2504.0525 c 35.37828,-34.6103 97.70065,-58.4178 169.69709,-61.2262 V 2340.8144 H 424.8951 c -2.75473,0 -5.21617,-2.2978 -6.77602,-5.8402 -1.08656,-2.4892 -1.73983,-5.5848 -1.73983,-8.9358 v -5.154 c 0,-8.138 3.83297,-14.776 8.51585,-14.776 h 124.19978 v -284.9407 c 0,-7.5316 6.42938,-13.6909 14.29029,-13.6909 v 0 c 7.86092,0 14.2903,6.1593 14.2903,13.6909 v 284.9407 h 124.19978 c 4.68455,0 8.51585,6.638 8.51585,14.776 v 5.154 c 0,3.4627 -0.69494,6.654 -1.85316,9.1752 -1.56151,3.4147 -3.97295,5.6008 -6.66269,5.6008 H 577.67547 v 102.0119 c 71.99644,2.8084 134.32047,26.6159 169.69875,61.2262 2.57142,2.5053 4.99119,5.0743 7.26264,7.6912 H 372.13349 c 2.26145,-2.6169 4.69288,-5.1859 7.2643,-7.6912" style="fill:#d39e7a;fill-opacity:1;fill-rule:nonzero;stroke:none;stroke-width:0.163071"></path>
    <path id="path27" d="m 549.09488,2443.3369 c 50.23019,4.4519 93.40272,27.6691 118.39533,60.7156 1.90481,2.5212 3.69298,5.0743 5.37615,7.6912 h 35.38994 c -1.68317,-2.6169 -3.47133,-5.17 -5.37615,-7.6912 -27.884,-36.8761 -78.39916,-61.4975 -136.08697,-61.4975 -5.98776,0 -11.89219,0.2553 -17.6983,0.7819" style="fill:#e0b594;fill-opacity:1;fill-rule:nonzero;stroke:none;stroke-width:0.163071"></path>
    <path id="path28" d="m 940.63905,2443.8316 c 0,0 4.32792,66.8271 17.83163,67.7845 1.79649,0.1276 68.48842,0.1276 68.48842,0.1276 l 85.1369,-0.4627 c 0,0 -0.5583,-19.6429 -25.4443,-23.7916 -24.8842,-4.1648 -66.5386,-20.9034 -81.6138,-52.4022 -15.8585,-33.1263 -64.39885,8.7444 -64.39885,8.7444" style="fill:#163560;fill-opacity:1;fill-rule:nonzero;stroke:none;stroke-width:0.163071"></path>
    <path id="path29" d="m 603.45467,1952.8088 c 12.15384,19.7385 26.21082,38.2325 40.69944,55.7531 44.78071,54.1254 93.52604,98.7566 102.01856,140.9464 1.68651,8.4092 4.36792,17.4567 7.87092,26.9989 3.54632,9.6698 7.9309,19.8184 12.99042,30.3339 19.00318,39.525 47.42046,83.8051 75.79274,124.0642 49.04864,69.5876 89.19146,116.2772 89.19146,116.2772 0,0 12.85877,9.606 49.64858,9.59 10.23569,0 44.70071,-5.3615 44.70071,-5.3615 -3.388,-8.122 -44.06577,-100.5119 -93.41605,-217.922 -20.03974,-47.679 -41.35104,-98.3737 -61.90907,-147.2813 -2.73974,-6.5264 -5.47947,-13.0208 -8.18921,-19.4673 -6.28607,-14.9675 -12.47048,-29.6957 -18.51156,-44.0408 -46.33723,-110.2615 -83.24703,-198.0559 -83.24703,-198.0559 0,0 -185.2056,-67.1781 -204.43876,-23.648 -15.86015,35.8869 -2.94139,71.0557 46.79885,151.8131" style="fill:#233862;fill-opacity:1;fill-rule:nonzero;stroke:none;stroke-width:0.163071"></path>
    <path id="path30" d="M 1199.1093,2511.7437 H 918.61783 v -743.252 h 280.49147 v 743.252" style="fill:#d39e7a;fill-opacity:1;fill-rule:nonzero;stroke:none;stroke-width:0.163071"></path>
    <path id="path31" d="m 1187.4438,2511.7437 h 200.6474 v -743.252 h -200.6474 v 743.252" style="fill:#f2c7aa;fill-opacity:1;fill-rule:nonzero;stroke:none;stroke-width:0.163071"></path>
    <path id="path32" d="M 1189.3936,1768.4917 H 899.58798 v -14.9834 h 289.80562 v 14.9834" style="fill:#af7d5b;fill-opacity:1;fill-rule:nonzero;stroke:none;stroke-width:0.163071"></path>
    <path id="path33" d="m 1408.8392,1768.4917 h -219.4456 v -14.9834 h 219.4456 v 14.9834" style="fill:#e2b291;fill-opacity:1;fill-rule:nonzero;stroke:none;stroke-width:0.163071"></path>
    <path id="path34" d="m 895.20174,1653.4751 c 0,0 40.19281,21.8927 51.4434,21.8768 11.25059,0 55.41636,-8.1699 67.72686,-2.1382 12.3121,6.0157 34.595,30.2541 38.7763,38.1686 7.5193,14.2335 -30.2655,7.9465 -48.1271,-4.1807 -2.5914,-1.7552 -5.81776,-2.4094 -8.92079,-1.7552 -9.24912,1.9308 -28.46894,5.2657 -37.74805,1.9786 -12.47714,-4.42 -78.20418,-9.3347 -78.20418,-9.3347 l 15.05356,-44.6152" style="fill:#ed975d;fill-opacity:1;fill-rule:nonzero;stroke:none;stroke-width:0.163071"></path>
    <path id="path35" d="m 589.41268,1355.4339 c 0,0 41.66435,283.5365 110.65607,308.9397 34.04174,12.5261 184.489,40.9451 228.99141,43.7855 0,0 10.90396,-8.4572 8.24754,-42.9238 0,0 -157.62324,-55.418 -180.01776,-85.5445 -33.32514,-44.8546 20.68802,-183.216 -21.12798,-225.342 -41.81933,-42.11 -112.25091,-60.2209 -146.74928,1.0851" style="fill:#82b378;fill-opacity:1;fill-rule:nonzero;stroke:none;stroke-width:0.163071"></path>
    <path id="path36" d="m 744.78281,2252.9084 c 0,0 -58.83104,36.206 -53.12325,47.9661 0.75993,1.5638 33.27181,57.3169 33.27181,57.3169 l 41.93432,70.9439 c 0,0 17.63998,-10.0527 9.29411,-32.871 -8.3442,-22.8342 -13.38038,-65.8218 7.98924,-93.7781 22.48118,-29.4084 -39.36623,-49.5778 -39.36623,-49.5778" style="fill:#163560;fill-opacity:1;fill-rule:nonzero;stroke:none;stroke-width:0.163071"></path>
    <path id="path37" d="m 778.20794,2322.3205 c 0,0 -41.40937,-36.8283 -47.89042,-59.6146 0,0 151.50216,-173.8015 184.36735,-212.7681 1.50652,-1.7871 1.12323,-3.7498 -0.86825,-5.904 -24.81096,-26.7755 -300.46956,-81.2361 -336.49778,-134.8988 -12.41881,-18.4939 -19.4498,-36.0624 -23.2811,-51.3969 -8.16589,-32.7433 -1.70984,-55.3701 -1.70984,-55.3701 l 275.30364,-7.6273 c 0,0 229.21476,136.67 255.17386,229.8418 25.9459,93.1877 -304.59746,297.738 -304.59746,297.738" style="fill:#2b478b;fill-opacity:1;fill-rule:nonzero;stroke:none;stroke-width:0.163071"></path>
    <path id="path38" d="m 913.81662,2044.0338 c -24.81096,-26.7755 -300.46956,-81.2361 -336.49778,-134.8988 -12.41881,-18.4939 -19.4498,-36.0624 -23.2811,-51.3969 v -33.3497 l 117.00879,-17.6323 c 0,0 33.18349,97.7674 131.45575,134.4202 92.04452,34.339 109.47618,95.278 111.31434,102.8575" style="fill:#233862;fill-opacity:1;fill-rule:nonzero;stroke:none;stroke-width:0.163071"></path>
    <path id="path39" d="m 752.29875,1337.5623 c -55.69633,13.7867 -148.02082,-35.6156 -148.02082,-35.6156 0,0 35.85156,-23.0735 49.13696,-73.7524 0.6766,-2.553 1.27654,-5.17 1.82482,-7.8507 5.83111,-1.1808 16.83339,-3.4307 28.6006,-5.8083 l 42.53759,36.4932 c 0,0 -0.96991,15.143 -6.29106,41.1845 -0.91992,4.5477 -1.97981,9.4305 -3.20303,14.6165 22.83115,13.5473 35.41494,30.7328 35.41494,30.7328" style="fill:#ffb27d;fill-opacity:1;fill-rule:nonzero;stroke:none;stroke-width:0.163071"></path>
    <path id="path40" d="m 545.3119,1558.6119 c 7.97424,102.7299 -2.51809,258.9789 6.52938,286.0257 7.81092,23.3608 96.80073,9.4783 132.32233,1.6755 13.14541,-2.8723 29.07055,-7.0051 45.51897,-11.8719 45.87561,-13.6111 95.86249,-33.0306 101.22698,-47.4396 0.20665,-0.5744 0.3833,-1.117 0.49495,-1.6595 0.49495,-2.0903 0.38496,-4.053 -0.0967,-6.0476 -1.78816,-7.3401 -8.6775,-15.3026 -9.48909,-33.4933 -0.90658,-20.329 -0.76992,-44.2483 -1.56651,-69.9706 -0.0417,-2.9042 -0.0833,-6.0636 -0.4133,-8.9518 l -0.0133,-1.0372 c -0.015,-0.5585 -0.0283,-1.101 -0.0417,-1.6595 -0.76993,-28.6903 -2.33811,-58.8487 -4.15294,-88.7677 -1.15489,-18.7971 -2.48976,-37.4027 -4.02961,-55.2265 -4.00129,-46.0194 -9.3941,-86.9486 -16.53009,-112.8146 -11.66221,-42.1738 -37.37642,-69.6834 -60.78251,-89.8528 l -16.93005,-13.8983 c -18.89319,3.9572 -41.22771,1.3244 -61.42911,-7.8348 -21.86458,-9.9411 -29.41385,-17.0579 -33.22349,-14.3771 -50.49683,37.307 -86.81669,151.6056 -77.39426,277.2016" style="fill:#a8d29f;fill-opacity:1;fill-rule:nonzero;stroke:none;stroke-width:0.163071"></path>
    <path id="path41" d="m 729.68258,1834.4412 c 45.87561,-13.6111 95.86249,-33.0306 101.22698,-47.4396 0.20665,-0.5744 0.3833,-1.117 0.49495,-1.6595 -0.0267,-2.0105 -0.0567,-4.0371 -0.0967,-6.0476 -1.78816,-7.3401 -8.6775,-15.3026 -9.48909,-33.4933 -0.90658,-20.329 -0.76992,-44.2483 -1.56651,-69.9706 -0.0417,-2.9042 -0.0833,-6.0636 -0.4133,-8.9518 l -0.0133,-1.0372 c -0.015,-0.5585 -0.0283,-1.101 -0.0417,-1.6595 L 634.31838,1437.9465 c 0,0 -124.66806,248.5751 95.3642,396.4947" style="fill:#82b378;fill-opacity:1;fill-rule:nonzero;stroke:none;stroke-width:0.163071"></path>
    <path id="path42" d="m 726.3779,1251.0285 c 0,0 -0.96991,15.143 -6.29106,41.1845 -41.54269,-12.8452 -60.37922,-48.7799 -66.67195,-64.0187 0.6766,-2.553 1.27654,-5.17 1.82482,-7.8507 5.83111,-1.1808 16.83339,-3.4307 28.6006,-5.8083 l 42.53759,36.4932" style="fill:#ed975d;fill-opacity:1;fill-rule:nonzero;stroke:none;stroke-width:0.163071"></path>
    <path id="path43" d="m 731.9657,1273.9904 c 0,0 -90.58799,-14.4729 -80.30564,-68.359 10.28234,-53.8702 5.51613,-92.0229 63.79055,-85.0657 58.27442,6.9731 65.55706,29.4882 66.69195,48.2693 1.13656,18.7812 -26.34581,107.5329 -50.17686,105.1554" style="fill:#ffb27d;fill-opacity:1;fill-rule:nonzero;stroke:none;stroke-width:0.163071"></path>
    <path id="path44" d="m 930.38503,1740.2801 226.24337,-0.032 61.4791,-190.3168 8.0159,2.3775 -64.9838,201.1994 H 930.28838 l 0.0967,-13.2282" style="fill:#1c468a;fill-opacity:1;fill-rule:nonzero;stroke:none;stroke-width:0.163071"></path>
    <path id="path45" d="m 870.40411,1745.7852 c 0,0 74.14457,18.7173 101.95024,16.7546 27.80405,-1.9626 50.92845,-14.6323 54.42815,-21.2385 3.498,-6.6061 10.8473,-18.3343 -8.0826,-16.1642 -18.92818,2.1542 -44.77237,6.0157 -45.57396,2.5371 -0.80159,-3.4945 15.43186,-3.1594 15.43186,-3.1594 0,0 4.90619,-6.8295 -1.27321,-7.0848 -6.17775,-0.2394 -24.19935,-4.9147 -30.89205,-1.7234 -6.69436,3.2073 -12.87376,15.0473 -17.76663,14.5526 -4.88953,-0.4946 -62.04239,-24.6532 -62.04239,-24.6532 l -6.17941,40.1792" style="fill:#ffb27d;fill-opacity:1;fill-rule:nonzero;stroke:none;stroke-width:0.163071"></path>
    <path id="path46" d="m 607.80092,1369.5557 c 0,0 8.7625,286.2172 74.40954,318.7371 32.3919,16.0526 178.65123,60.1572 222.55369,67.6888 0,0 11.81054,-7.2603 13.14041,-41.8068 0,0 -150.28394,-71.694 -169.07048,-104.0224 -27.95899,-48.0779 41.65768,-179.897 4.94453,-226.1718 -36.71315,-46.2907 -104.63165,-71.7099 -145.97769,-14.4249" style="fill:#a8d29f;fill-opacity:1;fill-rule:nonzero;stroke:none;stroke-width:0.163071"></path>
    <path id="path47" d="m 653.41489,1228.1943 c 0,0 -1.03824,-18.4779 10.87396,-29.0733 0,0 -4.14961,-18.5258 3.50966,-21.5895 7.65593,-3.0478 9.25245,12.5261 12.76211,10.0847 3.50967,-2.4414 19.14317,-14.058 25.84419,-31.1636 6.69936,-17.1057 68.02182,3.6062 75.17114,6.7018 7.14765,3.0797 30.12045,-8.2337 34.58669,-17.3929 0,0 -12.76211,-9.7815 -18.5049,-17.1057 -5.74445,-7.3401 -45.9456,-56.8222 -102.10022,-42.7802 -56.15629,14.0579 -63.81389,39.7165 -60.6242,61.7209 3.19136,21.9885 -4.5179,73.2258 18.48157,80.5978" style="fill:#233862;fill-opacity:1;fill-rule:nonzero;stroke:none;stroke-width:0.163071"></path>
    <path id="path48" d="m 757.7199,1915.8528 v 0 c -85.14851,0 -169.41545,-16.4993 -247.72628,-48.5087 l -50.82347,-20.7757 c -46.13558,-18.861 -97.38901,13.5473 -97.38901,61.5773 v 24.1426 41.8707 26.8712 c 0,9.0316 7.72093,16.4355 17.16003,16.4355 H 757.7199 c 9.43743,0 17.16002,-7.4039 17.16002,-16.4355 v -68.7419 c 0,-9.0315 -7.72259,-16.4355 -17.16002,-16.4355" style="fill:#912f2f;fill-opacity:1;fill-rule:nonzero;stroke:none;stroke-width:0.163071"></path>
    <path id="path49" d="m 2238.3431,1987.3712 c -79.7757,13.1006 -157.2183,15.9568 -216.1126,11.5368 -59.511,-4.4679 -94.291,-22.0523 -97.8906,-42.126 -3.2497,-18.1748 18.7815,-39.0303 63.7272,-60.2688 v 0 c -43.0792,20.3609 -63.9439,43.2908 -60.9775,59.822 3.283,18.3504 37.9964,31.3392 95.2409,35.6475 58.6944,4.4201 134.8537,-0.367 214.4294,-13.4356 79.5924,-13.0846 153.0521,-32.9029 206.8469,-55.8009 52.4783,-22.3236 80.6756,-45.6525 77.3926,-64.0028 -3.483,-19.4354 -40.9461,-38.1527 -97.774,-48.8278 -64.5938,-12.1431 -140.8198,-8.0582 -215.9126,4.2764 -140.9865,23.1693 -196.1979,48.4768 -243.0101,76.4969 v 0 c 47.0122,-28.1478 100.3071,-60.0454 241.7935,-83.2945 75.3928,-12.3984 152.6521,-12.4942 217.5625,-0.3032 58.0278,10.9145 96.3575,30.5254 100.0738,51.1895 3.5996,20.0736 -24.4644,43.9131 -79.0091,67.1302 -53.9949,22.9778 -126.5879,48.8438 -206.3803,61.9603" style="fill:#c65447;fill-opacity:1;fill-rule:nonzero;stroke:none;stroke-width:0.163071"></path>
    <path id="path50" d="m 3167.6042,1737.0409 c 0,0 -4.6329,43.0355 -9.6991,51.1894 -5.0829,8.138 -26.6808,34.1635 -35.8799,39.2537 -9.2158,5.1062 5.6161,-34.2752 3.733,-41.9344 -1.8665,-7.6753 -7.566,13.9781 -11.6323,14.4887 -4.0496,0.5107 -2.9997,-18.9726 -3.1497,-26.0734 -0.1499,-7.0848 19.7315,-24.5894 26.7475,-39.7005 6.9993,-15.0951 29.8805,2.7765 29.8805,2.7765" style="fill:#ffb27d;fill-opacity:1;fill-rule:nonzero;stroke:none;stroke-width:0.163071"></path>
    <path id="path51" d="m 2615.257,1340.0037 -10.3323,-18.6695 c 0,0 5.1162,-33.254 -38.413,-54.301 0,0 -15.8985,-6.2072 -24.8809,6.2232 -8.2826,11.441 15.7651,9.3826 14.4652,28.9456 -1.2832,19.579 8.4159,31.0679 21.9313,37.4506 l 11.1656,12.3825 26.0641,-12.0314" style="fill:#ffb27d;fill-opacity:1;fill-rule:nonzero;stroke:none;stroke-width:0.163071"></path>
    <path id="path52" d="m 3026.6177,1295.3884 c 0,0 -37.3798,175.6685 -243.0934,233.0651 -64.2106,17.9195 -210.0966,-184.5085 -210.0966,-184.5085 0,0 5.1329,-18.6535 37.2631,-14.3771 0,0 142.0531,90.0443 159.9347,99.8258 15.8651,8.6805 120.2218,-111.57 167.7839,-130.9735 47.5621,-19.3875 88.2083,-3.0318 88.2083,-3.0318" style="fill:#4a75cb;fill-opacity:1;fill-rule:nonzero;stroke:none;stroke-width:0.163071"></path>
    <path id="path53" d="m 2670.2684,1288.9259 -5.8327,36.3656 -191.0317,-28.0999 5.8327,-36.3656 191.0317,28.0999" style="fill:#c65447;fill-opacity:1;fill-rule:nonzero;stroke:none;stroke-width:0.163071"></path>
    <path id="path54" d="m 2431.9079,1272.4745 41.4961,24.7171 5.8327,-36.3656 z" style="fill:#ffb27d;fill-opacity:1;fill-rule:nonzero;stroke:none;stroke-width:0.163071"></path>
    <path id="path55" d="m 2690.5332,1304.2604 -1.8332,11.4889 c -1.1332,7.0689 -8.0492,11.9198 -15.4318,10.8347 l -8.8325,-1.2925 5.8327,-36.3656 9.6158,1.4202 c 6.9493,1.0212 11.7322,7.2444 10.649,13.9143" style="fill:#ffb27d;fill-opacity:1;fill-rule:nonzero;stroke:none;stroke-width:0.163071"></path>
    <path id="path56" d="m 3272.2108,2399.727 c 0,0 25.5142,22.2916 20.5314,38.1367 -4.9662,15.8451 -27.9974,26.4085 -31.1137,45.7801 -3.1164,19.3556 -15.5652,29.919 -26.7641,29.919 -11.199,0 -53.4116,0 -53.4116,0 0,0 -8.2492,-13.6271 11.6656,-17.728 19.9147,-4.1009 27.4307,-26.8713 26.1808,-47.9821 -1.2332,-21.1268 1.8665,-49.3066 1.8665,-49.3066 l 42.3293,-9.3826 8.7158,10.5635" style="fill:#233862;fill-opacity:1;fill-rule:nonzero;stroke:none;stroke-width:0.163071"></path>
    <path id="path57" d="m 2959.1241,2457.3948 c 0,0 4.5829,50.7586 -6.616,56.0403 l -143.3863,-0.2872 c 0,0 0,-15.8451 23.0311,-19.3715 23.0312,-3.5105 63.494,-16.4196 70.3433,-45.1738 6.8493,-28.7541 56.6279,8.7922 56.6279,8.7922" style="fill:#233862;fill-opacity:1;fill-rule:nonzero;stroke:none;stroke-width:0.163071"></path>
    <path id="path58" d="m 2838.0857,1740.5354 c 0,0 7.5493,88.9432 16.4484,195.8857 12.0822,145.2548 26.5975,323.6838 28.0473,357.4803 2.4831,58.6892 12.4489,152.579 12.4489,152.579 0,0 23.6477,22.3076 70.9598,12.909 0,0 42.1627,-134.0371 54.1948,-275.8293 0.2,-2.3297 0.3833,-4.6753 0.5666,-7.021 11.199,-144.3452 28.6306,-448.3383 28.6306,-448.3383 l -211.2964,12.3346" style="fill:#2b478b;fill-opacity:1;fill-rule:nonzero;stroke:none;stroke-width:0.163071"></path>
    <path id="path59" d="m 2838.0857,1740.5354 c 0,0 7.5493,88.9432 16.4484,195.8857 l 165.6508,247.139 c 0.2,-2.3297 0.3833,-4.6753 0.5666,-7.021 11.199,-144.3452 28.6306,-448.3383 28.6306,-448.3383 l -211.2964,12.3346" style="fill:#233862;fill-opacity:1;fill-rule:nonzero;stroke:none;stroke-width:0.163071"></path>
    <path id="path60" d="m 2872.6157,1751.0988 c 0,0 136.3036,322.1679 225.9451,473.5661 89.6247,151.3981 117.6387,193.6517 117.6387,193.6517 0,0 51.3451,-19.3715 56.0113,-32.5678 0,0 -34.28,-292.2967 -94.291,-363.5439 -33.9301,-40.259 -73.7596,-161.0839 -75.6261,-203.3375 -1.8665,-42.2537 -12.1488,-125.8673 -12.1488,-125.8673 l -217.5292,58.0987" style="fill:#2b478b;fill-opacity:1;fill-rule:nonzero;stroke:none;stroke-width:0.163071"></path>
    <path id="path61" d="m 3051.9652,1254.6029 c 0,0 -92.2411,42.6206 -145.4027,26.8074 0,0 13.0821,-15.8132 35.9965,-27.5734 -1.8498,-10.2123 -3.283,-19.0843 -4.0996,-26.6 -2.2498,-17.361 -2.2498,-27.1904 -2.2498,-27.1904 l 35.58,-26.8074 33.7467,-25.6426 c -2.6497,72.1088 46.4289,107.0064 46.4289,107.0064" style="fill:#ffb27d;fill-opacity:1;fill-rule:nonzero;stroke:none;stroke-width:0.163071"></path>
    <path id="path62" d="m 3100.5606,1709.4994 c 0.2,5.3934 -11.8656,11.5687 -17.1817,13.8824 -39.4629,16.5792 -76.276,28.1478 -117.9887,32.0094 -49.2953,4.819 -107.5731,-5.7923 -127.6045,-5.4094 -2.0498,0 -3.8996,-0.7659 -5.5328,-2.1063 -1.4332,-0.9733 -2.4497,-57.8434 -1.4332,-129.3777 0,-2.8882 0,-5.7923 0.2167,-8.6805 v -0.9574 c 0.3999,-27.9564 1.4332,-57.269 2.8497,-86.5657 2.8664,-64.4017 8.1826,-126.4896 17.1817,-160.8127 10.849,-40.4824 35.3799,-67.2898 57.6778,-86.7571 l 18.3982,-15.4302 c 18.4149,3.4785 37.8298,2.5211 57.2612,-6.5423 21.2647,-9.8454 44.1791,-20.4407 47.8621,-17.744 27.7973,19.4673 46.6122,63.2368 56.6446,119.1495 5.7161,32.2008 8.5825,68.2632 8.3825,106.0489 0,13.8824 -0.4166,28.1478 -1.2332,42.2217 -4.8995,76.3533 0,142.6698 2.8664,181.0459 0.8166,11.1857 1.4332,19.8502 1.6332,26.0255" style="fill:#699dee;fill-opacity:1;fill-rule:nonzero;stroke:none;stroke-width:0.163071"></path>
    <path id="path63" d="m 3098.9274,1705.9889 c -322.9691,-0.6223 -59.561,-335.5556 -59.561,-335.5556 l 52.3117,-16.2759 c 4.1496,34.4028 6.2161,72.9225 6.0661,113.2933 0,14.8398 -0.3,30.0785 -0.8833,45.1099 -3.5496,81.5711 0,152.4353 2.0665,193.4283" style="fill:#4a75cb;fill-opacity:1;fill-rule:nonzero;stroke:none;stroke-width:0.163071"></path>
    <path id="path64" d="m 3006.1529,1175.1699 c 0,0 -23.3144,40.6898 -67.6935,52.067 -2.2498,-17.361 -2.2498,-27.1904 -2.2498,-27.1904 l 35.58,-26.8074 34.3633,1.9308" style="fill:#ed985f;fill-opacity:1;fill-rule:nonzero;stroke:none;stroke-width:0.163071"></path>
    <path id="path65" d="m 2919.9779,1198.8657 c 0,0 87.9915,13.7867 96.2574,-38.0091 8.2492,-51.7798 25.1809,-84.8902 -30.6471,-95.8685 -55.8279,-10.9942 -69.9266,7.2125 -77.1426,23.8714 -7.2159,16.6589 -11.1322,105.0915 11.5323,110.0062" style="fill:#ffb27d;fill-opacity:1;fill-rule:nonzero;stroke:none;stroke-width:0.163071"></path>
    <path id="path66" d="m 3048.2156,1058.781 c 0.7999,-0.8777 2.6331,-1.5798 6.7327,-1.8032 0,0 -3.283,-1.9627 -7.6493,-2.0584 -0.8666,-5.4572 -3.8996,-15.127 -13.7153,-17.4727 0,0 5.2828,2.6967 5.966,8.489 -11.3655,-11.1697 -35.7132,-19.3077 -103.1401,-14.2015 -88.8748,6.7018 -59.5776,61.1943 -48.0787,67.6887 11.5156,6.4945 40.4628,-11.3133 61.8941,-9.6857 21.4479,1.6275 25.5142,31.2912 32.7968,35.3602 7.266,4.069 4.3996,-3.1275 14.2487,-7.388 9.8324,-4.2604 10.7656,11.3453 7.9325,21.4938 -2.8497,10.1486 10.6657,23.5363 10.6657,23.5363 0,0 0,0 13.6653,-14.0739 13.6654,-14.0898 26.5308,-73.7683 20.3314,-86.4858 -0.5499,-1.117 -1.0999,-2.25 -1.6498,-3.3988" style="fill:#2c3a64;fill-opacity:1;fill-rule:nonzero;stroke:none;stroke-width:0.163071"></path>
    <path id="path67" d="m 3032.2171,1234.5771 c 0,0 55.678,25.2436 82.3588,64.0506 41.4127,60.189 89.3914,279.5472 90.2913,299.8602 0.8833,20.3131 -35.0299,163.7328 -35.0299,163.7328 0,0 -36.4299,-2.2978 -45.829,-19.9141 0,0 7.2827,-147.3451 2.6664,-156.8075 -4.6162,-9.4783 -151.8521,-197.6569 -135.287,-237.8202 16.5484,-40.1633 40.8294,-113.1018 40.8294,-113.1018" style="fill:#699dee;fill-opacity:1;fill-rule:nonzero;stroke:none;stroke-width:0.163071"></path>
    <path id="path69" d="m 132.8164,2519.9934 h 3734.3708 c 1.8331,0 3.333,-1.851 3.333,-4.1169 v 0 c 0,-2.2499 -1.4999,-4.1009 -3.333,-4.1009 H 132.8164 c -1.83316,0 -3.33135,1.851 -3.33135,4.1009 v 0 c 0,2.2659 1.49819,4.1169 3.33135,4.1169" style="fill:#283250;fill-opacity:1;fill-rule:nonzero;stroke:none;stroke-width:0.163071"></path>
    <path id="path68" d="m 2604.7247,1320.4566 c 0,0 3.0331,-11.457 -5.2661,-16.5951 -8.2993,-5.154 -15.9152,-19.1482 -19.4149,-17.2493 -7.2493,3.9254 3.9663,16.1483 1.9165,31.3711 -0.7166,5.3296 12.2489,19.3077 22.7645,2.4733" style="fill:#ffb27d;fill-opacity:1;fill-rule:nonzero;stroke:none;stroke-width:0.163071"></path>
  </g>
</svg>