<svg width="233" height="200" viewBox="0 0 233 200" fill="none" xmlns="http://www.w3.org/2000/svg">
<g clip-path="url(#clip0_10120_13943)">
<path d="M164.409 75.7886C164.451 75.9719 164.478 76.1582 164.49 76.3458L179.083 84.764L182.629 82.7222L186.411 87.6722L180.483 91.8972C180.004 92.2385 179.427 92.4152 178.839 92.4009C178.251 92.3866 177.684 92.1819 177.222 91.8177L162.175 79.9469C161.496 80.1983 160.757 80.237 160.055 80.0578C159.353 79.8786 158.723 79.4901 158.248 78.9439C157.772 78.3977 157.474 77.7197 157.394 77.0001C157.313 76.2805 157.453 75.5534 157.796 74.9155C158.139 74.2776 158.668 73.7591 159.312 73.4291C159.957 73.099 160.686 72.973 161.404 73.0678C162.122 73.1626 162.794 73.4737 163.331 73.9597C163.868 74.4457 164.244 75.0837 164.409 75.7886Z" fill="#FFB6B6"></path>
<path d="M179.285 83.834C179.331 83.6192 179.423 83.417 179.555 83.2411C179.687 83.0652 179.855 82.9197 180.047 82.8147L186.784 79.144C187.682 78.4668 188.811 78.1731 189.924 78.3272C191.037 78.4814 192.044 79.0707 192.724 79.9662C193.403 80.8616 193.7 81.9899 193.549 83.1037C193.397 84.2175 192.811 85.2258 191.917 85.9076L186.517 91.3929C186.363 91.5494 186.177 91.6709 185.972 91.7491C185.767 91.8272 185.547 91.8602 185.328 91.8458C185.109 91.8314 184.895 91.7699 184.702 91.6655C184.508 91.5611 184.34 91.4163 184.208 91.241L179.559 85.0772C179.426 84.9019 179.333 84.7 179.286 84.4855C179.239 84.2709 179.239 84.0487 179.285 83.834Z" fill="#3F3D56"></path>
<path d="M191.016 62.7923C191.986 59.7031 194.19 56.8698 197.238 55.8255C200.287 54.7812 204.751 56.372 207.043 58.6561C211.235 62.8343 211.364 67.949 208.484 72.4848C207.911 72.4545 205.934 72.4321 205.354 72.4104L204.534 69.6765V72.3834C200.008 72.2436 195.296 72.3311 190.582 72.4217C190.159 69.2103 190.047 65.8814 191.016 62.7923Z" fill="#2F2E41"></path>
<path d="M190.024 192.161H185.896L183.932 176.238L190.025 176.239L190.024 192.161Z" fill="#FFB6B6"></path>
<path d="M215.465 192.161H211.337L209.374 176.238L215.466 176.239L215.465 192.161Z" fill="#FFB6B6"></path>
<path d="M203.412 94.3704L204.347 96.8023L204.16 99.2345L185.854 105.575L186.762 94.9319L188.82 92.5L203.412 94.3704Z" fill="#FFB6B6"></path>
<path d="M197.624 72.4843C201.234 72.4843 204.162 69.5571 204.162 65.9463C204.162 62.3354 201.234 59.4082 197.624 59.4082C194.013 59.4082 191.085 62.3354 191.085 65.9463C191.085 69.5571 194.013 72.4843 197.624 72.4843Z" fill="#FFB7B7"></path>
<path d="M207.51 105.527V109.683C207.51 109.683 212.374 116.003 209.755 120.867L217.259 185.595H209.402L196.286 130.969L190.695 184.472H183.961L183.158 141.92C182.947 130.727 184.816 119.592 188.669 109.082L207.51 105.527Z" fill="#2F2E41"></path>
<path d="M193.131 57.4327C194.388 56.6668 195.827 56.2525 197.298 56.2331C198.769 56.2137 200.218 56.5899 201.494 57.3224C202.77 58.0549 203.826 59.1167 204.551 60.3969C205.276 61.6771 205.644 63.1285 205.616 64.5996C201.962 64.7676 198.123 64.8114 194.23 64.819L193.31 62.5673L192.768 64.8206C191.581 64.8205 190.393 64.8189 189.202 64.8159C189.154 63.349 189.491 61.8951 190.181 60.5994C190.87 59.3038 191.888 58.2118 193.131 57.4327Z" fill="#2F2E41"></path>
<path d="M191.871 199.998H188.942L188.419 197.233L187.08 199.998H179.311C178.939 199.998 178.576 199.879 178.276 199.659C177.976 199.438 177.754 199.127 177.644 198.772C177.533 198.416 177.538 198.034 177.66 197.682C177.781 197.33 178.012 197.026 178.319 196.815L184.523 192.53V189.734L191.048 190.124L191.871 199.998Z" fill="#2F2E41"></path>
<path d="M217.686 199.998H214.757L214.234 197.233L212.895 199.998H205.126C204.753 199.998 204.391 199.879 204.091 199.659C203.791 199.438 203.569 199.127 203.459 198.772C203.348 198.416 203.353 198.034 203.475 197.682C203.596 197.33 203.827 197.026 204.134 196.815L210.337 192.53V189.734L216.863 190.124L217.686 199.998Z" fill="#2F2E41"></path>
<path d="M210.485 118.855C210.848 113.861 210.474 108.841 209.374 103.956C207.985 97.7915 206.221 89.9474 206.186 89.7447C206.186 89.7407 206.185 89.7367 206.185 89.7327L205.647 78.2427C205.646 78.2094 205.632 78.1778 205.608 78.1544C205.584 78.1309 205.553 78.1173 205.519 78.1162L201.799 77.9911C201.765 77.99 201.732 77.9755 201.708 77.9507C201.684 77.926 201.671 77.8929 201.671 77.8584C201.671 77.5813 201.616 77.3069 201.51 77.0508C201.404 76.7948 201.249 76.5621 201.053 76.3662C200.857 76.1702 200.624 76.0147 200.368 75.9087C200.112 75.8026 199.838 75.748 199.56 75.748H192.13C191.649 75.7482 191.185 75.9241 190.824 76.2425C190.463 76.561 190.231 77.0002 190.171 77.4777C190.167 77.5106 190.152 77.541 190.127 77.5629C190.102 77.5848 190.07 77.5965 190.037 77.5957L187.146 77.4986C187.117 77.4976 187.089 77.5061 187.065 77.5229C187.041 77.5397 187.024 77.5637 187.015 77.5914L186.814 78.2303C183.895 87.6294 183.085 97.5563 184.44 107.304C184.79 109.898 184.632 113.799 184.499 115.972C184.486 116.184 184.515 116.397 184.585 116.598C184.654 116.799 184.762 116.985 184.904 117.144C185.045 117.303 185.216 117.433 185.408 117.526C185.6 117.618 185.808 117.672 186.02 117.684C191.395 117.994 206.613 125.357 210.257 121.842C210.266 121.833 210.363 120.536 210.485 118.855Z" fill="#3F3D56"></path>
<path d="M180.677 75.7886C180.719 75.9719 180.746 76.1582 180.758 76.3458L195.351 84.764L198.897 82.7222L202.679 87.6722L196.751 91.8972C196.272 92.2385 195.695 92.4152 195.107 92.4009C194.52 92.3866 193.952 92.1819 193.49 91.8177L178.443 79.9469C177.764 80.1983 177.025 80.237 176.323 80.0578C175.622 79.8786 174.991 79.4901 174.516 78.9439C174.04 78.3977 173.743 77.7197 173.662 77.0001C173.581 76.2805 173.722 75.5534 174.064 74.9155C174.407 74.2776 174.936 73.7591 175.58 73.4291C176.225 73.099 176.954 72.973 177.672 73.0678C178.39 73.1626 179.062 73.4737 179.599 73.9597C180.136 74.4457 180.512 75.0837 180.677 75.7886Z" fill="#FFB6B6"></path>
<path d="M195.554 83.8353C195.6 83.6206 195.692 83.4184 195.824 83.2425C195.955 83.0666 196.123 82.9211 196.316 82.816L203.053 79.1453C203.95 78.4685 205.079 78.175 206.192 78.3292C207.306 78.4835 208.312 79.0728 208.992 79.9681C209.671 80.8634 209.968 81.9915 209.816 83.1051C209.665 84.2188 209.079 85.2271 208.185 85.909L202.786 91.3943C202.632 91.5508 202.446 91.6723 202.241 91.7504C202.035 91.8286 201.815 91.8616 201.596 91.8472C201.377 91.8327 201.164 91.7713 200.97 91.6669C200.777 91.5625 200.609 91.4177 200.476 91.2423L195.827 85.0786C195.695 84.9032 195.602 84.7014 195.555 84.4868C195.508 84.2723 195.507 84.05 195.554 83.8353Z" fill="#3F3D56"></path>
<path d="M167.465 101.216L44.0914 157.859C42.3353 158.663 40.332 158.737 38.5211 158.066C36.7101 157.395 35.2394 156.032 34.4316 154.278L3.98592 87.9649C3.18208 86.2088 3.10764 84.2055 3.77894 82.3946C4.45024 80.5836 5.81246 79.1129 7.56675 78.3051L130.941 21.6617C132.697 20.8579 134.7 20.7834 136.511 21.4547C138.322 22.126 139.793 23.4882 140.6 25.2425L171.046 91.5557C171.85 93.3118 171.924 95.3151 171.253 97.126C170.582 98.937 169.22 100.408 167.465 101.216Z" fill="white"></path>
<path d="M9.61848 82.7763C9.04857 83.0388 8.60603 83.5165 8.38795 84.1048C8.16987 84.6932 8.19406 85.3439 8.45521 85.9144L38.9009 152.228C39.1633 152.798 39.6411 153.24 40.2294 153.458C40.8177 153.676 41.4685 153.652 42.039 153.391L165.413 96.7475C165.983 96.4851 166.425 96.0073 166.643 95.419C166.862 94.8307 166.837 94.1799 166.576 93.6094L136.131 27.2962C135.868 26.7263 135.39 26.2838 134.802 26.0657C134.214 25.8476 133.563 25.8718 132.992 26.1329L9.61848 82.7763Z" fill="#E4E4E4"></path>
<path d="M167.465 101.216L44.0914 157.859C42.3353 158.663 40.332 158.737 38.5211 158.066C36.7101 157.395 35.2394 156.032 34.4316 154.278L3.98592 87.9649C3.18208 86.2088 3.10764 84.2055 3.77894 82.3946C4.45024 80.5836 5.81246 79.1129 7.56675 78.3051L130.941 21.6617C132.697 20.8579 134.7 20.7834 136.511 21.4547C138.322 22.126 139.793 23.4882 140.6 25.2425L171.046 91.5557C171.85 93.3118 171.924 95.3151 171.253 97.126C170.582 98.937 169.22 100.408 167.465 101.216ZM7.88242 78.9927C6.31033 79.7166 5.0896 81.0346 4.48803 82.6574C3.88645 84.2803 3.95318 86.0755 4.67355 87.6492L35.1192 153.962C35.8431 155.534 37.1611 156.755 38.7839 157.357C40.4068 157.958 42.202 157.892 43.7757 157.171L167.15 100.528C168.722 99.804 169.942 98.486 170.544 96.8632C171.146 95.2403 171.079 93.4451 170.359 91.8714L139.913 25.5582C139.189 23.9861 137.871 22.7654 136.248 22.1638C134.625 21.5623 132.83 21.629 131.256 22.3494L7.88242 78.9927Z" fill="#CACACA"></path>
<path d="M136.637 71.1239L38.6241 116.124C37.8347 116.485 36.953 116.593 36.0996 116.435C35.2461 116.276 34.4624 115.858 33.8554 115.237L5.17874 85.8294C4.70843 85.3471 4.36078 84.7589 4.16501 84.1143C3.96925 83.4697 3.93109 82.7876 4.05374 82.1252C4.17639 81.4627 4.45627 80.8395 4.86985 80.3077C5.28343 79.7759 5.81862 79.3512 6.43044 79.0693L132.04 21.1654C132.644 20.8873 133.305 20.7561 133.969 20.7827C134.634 20.8092 135.282 20.9928 135.862 21.3184C136.442 21.6439 136.936 22.1022 137.305 22.6556C137.673 23.209 137.905 23.8418 137.982 24.5022L137.999 24.5018L139.088 67.1922C139.11 68.0156 138.889 68.8273 138.453 69.5262C138.018 70.2252 137.386 70.7808 136.637 71.1239ZM132.361 21.8506L6.74708 79.7565C6.24527 79.9877 5.8063 80.3361 5.46709 80.7722C5.12787 81.2083 4.89832 81.7195 4.79772 82.2628C4.69711 82.8061 4.72841 83.3656 4.88897 83.8943C5.04953 84.423 5.33467 84.9054 5.72041 85.301L34.397 114.709C34.8949 115.218 35.5377 115.561 36.2377 115.691C36.9378 115.821 37.6609 115.732 38.3084 115.436L136.322 70.4362C136.936 70.1548 137.454 69.6992 137.811 69.1258C138.169 68.5525 138.35 67.8868 138.332 67.2115L137.252 24.8993C137.237 24.3283 137.081 23.7699 136.798 23.2741C136.514 22.7783 136.112 22.3606 135.627 22.0584C135.143 21.7563 134.59 21.5791 134.02 21.5429C133.45 21.5066 132.88 21.6123 132.361 21.8506Z" fill="#CACACA"></path>
<path d="M75.1738 132L44.637 146.02C44.4154 146.122 44.1759 146.179 43.9321 146.189C43.6884 146.198 43.4451 146.159 43.2164 146.074C42.9876 145.99 42.7778 145.861 42.5989 145.695C42.42 145.529 42.2755 145.33 42.1737 145.108C42.0719 144.886 42.0148 144.647 42.0057 144.403C41.9966 144.159 42.0356 143.916 42.1204 143.687C42.2053 143.459 42.3345 143.249 42.5005 143.07C42.6665 142.892 42.8661 142.747 43.0878 142.646L73.6247 128.626C74.072 128.421 74.5824 128.402 75.0437 128.573C75.505 128.744 75.8794 129.092 76.0847 129.539C76.29 129.986 76.3094 130.496 76.1386 130.958C75.9678 131.419 75.6208 131.794 75.1738 132Z" fill="white"></path>
<path d="M97.5142 88.6719C98.0384 89.8108 98.333 91.0418 98.3812 92.2947C98.4293 93.5475 98.2301 94.7975 97.7949 95.9733C97.3597 97.1491 96.697 98.2276 95.8447 99.1471C94.9924 100.067 93.9673 100.809 92.8279 101.332C91.6885 101.855 90.4572 102.149 89.2043 102.196C87.9514 102.243 86.7015 102.042 85.5262 101.606C84.3508 101.17 83.2729 100.506 82.3542 99.6529C81.4355 98.7998 80.6939 97.7739 80.1719 96.634" fill="#CACACA"></path>
<path d="M166.365 191.413H30.6094C28.6781 191.411 26.8264 190.642 25.4607 189.277C24.0951 187.911 23.3269 186.059 23.3247 184.128V111.16C23.3269 109.228 24.0951 107.377 25.4608 106.011C26.8265 104.645 28.6781 103.877 30.6094 103.875H166.365C168.296 103.877 170.148 104.645 171.514 106.011C172.879 107.377 173.648 109.228 173.65 111.16V184.128C173.648 186.059 172.879 187.911 171.514 189.277C170.148 190.642 168.296 191.411 166.365 191.413Z" fill="white"></path>
<path d="M30.6092 108.793C29.9818 108.794 29.3803 109.043 28.9366 109.487C28.4929 109.931 28.2434 110.532 28.2427 111.16V184.128C28.2434 184.755 28.4929 185.357 28.9366 185.8C29.3803 186.244 29.9818 186.494 30.6092 186.494H166.365C166.992 186.494 167.594 186.244 168.037 185.8C168.481 185.357 168.731 184.755 168.731 184.128V111.16C168.731 110.532 168.481 109.931 168.037 109.487C167.594 109.043 166.992 108.794 166.365 108.793H30.6092Z" fill="#1E3A8A"></path>
<path d="M166.365 191.413H30.6094C28.6781 191.411 26.8264 190.642 25.4607 189.277C24.0951 187.911 23.3269 186.059 23.3247 184.128V111.16C23.3269 109.228 24.0951 107.377 25.4608 106.011C26.8265 104.645 28.6781 103.877 30.6094 103.875H166.365C168.296 103.877 170.148 104.645 171.514 106.011C172.879 107.377 173.648 109.228 173.65 111.16V184.128C173.648 186.059 172.879 187.911 171.514 189.277C170.148 190.642 168.296 191.411 166.365 191.413ZM30.6094 104.632C28.8787 104.634 27.2194 105.322 25.9955 106.546C24.7717 107.77 24.0833 109.429 24.0814 111.16V184.128C24.0833 185.859 24.7717 187.518 25.9955 188.742C27.2194 189.966 28.8787 190.654 30.6094 190.656H166.365C168.096 190.654 169.755 189.966 170.979 188.742C172.203 187.518 172.891 185.859 172.893 184.128V111.16C172.891 109.429 172.203 107.77 170.979 106.546C169.755 105.322 168.096 104.634 166.365 104.632H30.6094Z" fill="#3F3D56"></path>
<path d="M150.904 151.203H43.0547C42.1867 151.202 41.3401 150.932 40.6307 150.432C39.9212 149.932 39.3835 149.225 39.0908 148.408L25.2999 109.717C25.0738 109.082 25.0032 108.403 25.0943 107.735C25.1853 107.068 25.4353 106.432 25.8231 105.881C26.211 105.33 26.7254 104.88 27.3231 104.57C27.9208 104.259 28.5844 104.096 29.2581 104.095L167.572 103.883C168.236 103.882 168.892 104.039 169.485 104.34C170.077 104.641 170.59 105.079 170.981 105.616C171.372 106.154 171.63 106.777 171.734 107.434C171.838 108.09 171.785 108.762 171.579 109.394L171.595 109.401L154.772 148.652C154.449 149.41 153.909 150.055 153.222 150.509C152.534 150.962 151.728 151.203 150.904 151.203ZM167.577 104.639L29.2591 104.852C28.7066 104.853 28.1623 104.986 27.6721 105.241C27.1818 105.496 26.7599 105.865 26.4418 106.316C26.1237 106.768 25.9187 107.29 25.844 107.837C25.7693 108.385 25.8272 108.942 26.0127 109.463L39.8034 148.153C40.0435 148.824 40.4846 149.404 41.0665 149.814C41.6484 150.224 42.3427 150.445 43.0547 150.446H150.904C151.58 150.447 152.241 150.249 152.805 149.877C153.369 149.505 153.811 148.975 154.077 148.354L170.75 109.451C170.975 108.926 171.066 108.353 171.015 107.784C170.964 107.215 170.773 106.668 170.459 106.191C170.144 105.714 169.717 105.323 169.214 105.052C168.711 104.781 168.149 104.639 167.577 104.639Z" fill="white"></path>
<path d="M69.6464 180.881H36.0449C35.5525 180.881 35.0803 180.685 34.7322 180.337C34.3841 179.989 34.1885 179.517 34.1885 179.024C34.1885 178.532 34.3841 178.06 34.7322 177.712C35.0803 177.364 35.5525 177.168 36.0449 177.168H69.6464C70.1387 177.168 70.6109 177.364 70.959 177.712C71.3072 178.06 71.5027 178.532 71.5027 179.024C71.5027 179.517 71.3072 179.989 70.959 180.337C70.6109 180.685 70.1387 180.881 69.6464 180.881Z" fill="white"></path>
<path d="M108.029 150.824C108.029 153.355 107.023 155.782 105.234 157.571C103.445 159.36 101.018 160.366 98.4872 160.366C95.9566 160.366 93.5298 159.36 91.7404 157.571C89.9511 155.782 88.9458 153.355 88.9458 150.824" fill="white"></path>
<path d="M231.933 199.999H167.129C167.009 199.999 166.895 199.951 166.81 199.867C166.726 199.782 166.678 199.668 166.678 199.548C166.678 199.429 166.726 199.314 166.81 199.23C166.895 199.145 167.009 199.098 167.129 199.098H231.933C232.052 199.098 232.166 199.146 232.251 199.23C232.335 199.315 232.382 199.429 232.382 199.548C232.382 199.667 232.335 199.782 232.251 199.866C232.166 199.951 232.052 199.998 231.933 199.999Z" fill="#CACACA"></path>
</g>
<defs>
<clipPath id="clip0_10120_13943">
<rect width="232.383" height="200" fill="white"></rect>
</clipPath>
</defs>
</svg>