<svg width="98" height="144" viewBox="0 0 98 144" fill="none" xmlns="http://www.w3.org/2000/svg">
<g clip-path="url(#clip0_10183_14735)">
<path d="M85.3075 144H39.5829C32.8019 144 27.2852 138.483 27.2852 131.702V12.2977C27.2852 5.5167 32.8019 0 39.5829 0H85.3075C92.0886 0 97.6053 5.5167 97.6053 12.2977V131.702C97.6053 138.483 92.0886 144 85.3075 144ZM39.5829 0.473536C33.0623 0.473536 27.7587 5.77714 27.7587 12.2977V131.702C27.7587 138.223 33.0623 143.526 39.5829 143.526H85.3075C91.8281 143.526 97.1318 138.223 97.1318 131.702V12.2977C97.1318 5.77714 91.8281 0.473536 85.3075 0.473536H39.5829Z" fill="#DEDFE0"></path>
<path d="M50.9241 143.752C50.9241 143.879 50.8199 143.984 50.6921 143.984H0.232033C0.104178 143.984 0 143.879 0 143.752C0 143.624 0.104178 143.52 0.232033 143.52H50.6921C50.8199 143.52 50.9241 143.624 50.9241 143.752Z" fill="#3F3D58"></path>
<path d="M28.2134 72.0022L32.8659 73.5317V66.8359H28.6443L28.2134 72.0022Z" fill="#F6AAAE"></path>
<path d="M32.2883 68.6898C34.8486 68.6898 36.9242 66.6142 36.9242 64.0539C36.9242 61.4935 34.8486 59.418 32.2883 59.418C29.7279 59.418 27.6523 61.4935 27.6523 64.0539C27.6523 66.6142 29.7279 68.6898 32.2883 68.6898Z" fill="#F6AAAE"></path>
<path d="M31.1089 64.416L31.7482 65.1926L32.9036 63.1706C32.9036 63.1706 34.3787 63.2464 34.3787 62.1525C34.3787 61.0586 35.733 61.0279 35.733 61.0279C35.733 61.0279 37.6484 57.6823 33.6802 58.5631C33.6802 58.5631 30.9266 56.6761 29.5581 58.2885C29.5581 58.2885 25.3602 60.4028 26.5606 64.0845L28.5565 67.8776L29.0088 67.0181C29.0088 67.0181 28.7341 63.4121 31.1089 64.416Z" fill="#2F2E43"></path>
<path d="M30.6783 135.453H26.9326V140.766H30.6783V135.453Z" fill="#F6AAAE"></path>
<path d="M30.2663 143.809C29.6247 143.868 26.4212 144.119 26.2602 143.385C26.1134 142.71 26.3289 142.005 26.3596 141.91C26.6674 138.846 26.7811 138.811 26.8497 138.789C26.9587 138.759 27.2783 138.908 27.7944 139.242L27.8276 139.263L27.8347 139.301C27.8442 139.348 28.0738 140.473 29.1582 140.302C29.9017 140.184 30.1432 140.02 30.2213 139.94C30.1574 139.912 30.0793 139.862 30.0248 139.774C29.9443 139.649 29.9301 139.488 29.9822 139.296C30.1219 138.787 30.541 138.034 30.5575 138.003L30.6049 137.918L34.862 140.79L37.4901 141.541C37.689 141.597 37.8476 141.739 37.9281 141.929C38.0394 142.194 37.9707 142.502 37.7577 142.694C37.2794 143.122 36.3323 143.858 35.3355 143.948C35.0703 143.972 34.7199 143.982 34.3269 143.982C32.6813 143.982 30.2829 143.811 30.2639 143.809L30.2663 143.809Z" fill="#2F2E43"></path>
<path d="M18.9951 127.473L15.6084 131.566L18.4945 133.954L21.8812 129.86L18.9951 127.473Z" fill="#F6AAAE"></path>
<path d="M16.2399 136.042C15.7096 135.677 13.0791 133.83 13.4224 133.163C13.7397 132.549 14.3553 132.144 14.4405 132.09C16.6306 129.926 16.7419 129.971 16.8082 129.999C16.9123 130.044 17.0615 130.364 17.2486 130.949L17.2604 130.984L17.2415 131.017C17.2178 131.06 16.6779 132.073 17.6227 132.632C18.2714 133.016 18.5626 133.042 18.6715 133.03C18.6408 132.968 18.6123 132.878 18.6242 132.777C18.6408 132.63 18.7331 132.495 18.8988 132.381C19.3321 132.078 20.1324 131.766 20.1679 131.751L20.2579 131.716L21.7069 136.643L23.253 138.897C23.369 139.068 23.4022 139.278 23.343 139.477C23.2601 139.752 23.0115 139.946 22.7226 139.958C22.081 139.984 20.8829 139.946 20.0566 139.38C19.8388 139.231 19.5618 139.015 19.2587 138.764C17.992 137.716 16.2518 136.056 16.2376 136.042L16.2399 136.042Z" fill="#2F2E43"></path>
<path d="M36.8744 94.4766H24.0273L26.8828 136.943H31.1659L36.8767 94.4766L36.8744 94.4766Z" fill="#2F2E43"></path>
<path d="M34.2582 96.8158L36.8744 94.4766L35.5651 117.831L20.9329 131.749L17.2866 128.735L25.8103 117.673L34.2582 96.8158Z" fill="#2F2E43"></path>
<path d="M34.2581 69.4948L27.9127 68.4648L25.9428 71.9098C23.4378 76.29 22.4173 81.3616 23.0306 86.3692L24.0274 94.4786H36.8744L34.2581 69.4971L34.2581 69.4948Z" fill="#DADBDC"></path>
<path d="M29.1061 102.121C29.3689 103.431 28.8788 104.626 28.0146 104.792C27.148 104.955 26.2341 104.027 25.9713 102.716C25.86 102.192 25.8789 101.652 26.0281 101.139L24.9863 95.5723L27.7092 95.1484L28.4455 100.682C28.7817 101.106 29.009 101.598 29.1061 102.124V102.121Z" fill="#F6AAAE"></path>
<path d="M25.7934 100.613L21.7944 88.2586V88.2397L23.305 75.5181C23.537 73.5695 25.1897 72.1016 27.1501 72.1016C28.3505 72.1016 29.4634 72.6438 30.2021 73.5908C30.9408 74.5379 31.1989 75.7478 30.9076 76.9151L28.2393 87.5862L28.8762 99.6969L25.7911 100.613L25.7934 100.613Z" fill="#DADBDC"></path>
<path d="M48.6722 73.465C49.7827 79.396 55.4912 83.3051 61.4246 82.1923C63.2193 81.8561 64.8293 81.0984 66.1694 80.0401L79.6652 94.5966C80.4915 95.4868 81.9003 95.4844 82.7242 94.5895C83.4937 93.7537 83.4511 92.4562 82.6271 91.6725L68.208 77.9304C69.9411 75.577 70.7319 72.5392 70.1518 69.4399C69.0414 63.5089 63.3329 59.5999 57.3995 60.7127C51.4661 61.8255 47.5594 67.5316 48.6722 73.465ZM51.002 73.0293C50.1331 68.384 53.1921 63.9138 57.8375 63.0448C62.4829 62.1759 66.9531 65.2349 67.822 69.8803C68.691 74.5257 65.6319 78.9959 60.9865 79.8648C56.3412 80.7338 51.871 77.6747 51.002 73.0293Z" fill="#1E3A8A"></path>
</g>
<defs>
<clipPath id="clip0_10183_14735">
<rect width="97.6053" height="144" fill="white"></rect>
</clipPath>
</defs>
</svg>